<svg height="512pt" viewBox="0 -2 512.00036 512" width="512pt" xmlns="http://www.w3.org/2000/svg"><path d="m492.804688 266.25c0 78.164062.671874 149.722656-73.011719 149.722656h-33.894531l-30.203126-69.003906 97.808594-95.578125zm0 0" fill="#c86d5c"/><path d="m100.324219 266.25c0 78.164062-.675781 149.722656 73.007812 149.722656h33.894531l30.203126-69.003906-97.808594-95.578125zm0 0" fill="#ad4f3d"/><path d="m496.019531 208.566406c0-55.484375-20.597656-107.703125-57.996093-147.042968-37.714844-39.675782-87.953126-61.523438-141.460938-61.523438s-103.746094 21.847656-141.460938 61.523438c-37.398437 39.339843-57.996093 91.558593-57.996093 147.042968zm0 0" fill="#c86d5c"/><path d="m323.347656 1.867188c-8.804687-1.226563-17.746094-1.867188-26.785156-1.867188-53.507812 0-103.746094 21.847656-141.460938 61.523438-37.398437 39.339843-57.996093 91.558593-57.996093 147.042968h53.570312c0-55.484375 20.597657-107.703125 57.996094-147.042968 31.34375-32.972657 71.34375-53.621094 114.675781-59.65625zm0 0" fill="#ad4f3d"/><path d="m81.125 231.578125c0 22.597656 18.316406 40.914063 40.914062 40.914063 22.59375 0 20.308594-18.316407 20.308594-40.914063 0-22.59375 2.285156-40.910156-20.308594-40.910156-22.597656 0-40.914062 18.316406-40.914062 40.910156zm0 0" fill="#e3b098"/><path d="m512 231.578125c0 22.597656-18.316406 40.914063-40.914062 40.914063-22.59375 0-40.914063-18.316407-40.914063-40.914063 0-22.59375 18.320313-40.910156 40.914063-40.910156 22.597656 0 40.914062 18.316406 40.914062 40.910156zm0 0" fill="#e3b098"/><path d="m382.335938 369.628906s55.1875 41.589844 55.1875 117.023438h-281.921876c0-75.433594 55.1875-117.023438 55.1875-117.023438zm0 0" fill="#eb6da8"/><path d="m348.023438 378.773438c0 28.421874-23.039063 51.460937-51.460938 51.460937s-51.460938-23.039063-51.460938-51.460937c0-28.421876 23.039063-51.460938 51.460938-51.460938s51.460938 23.039062 51.460938 51.460938zm0 0" fill="#e3b098"/><path d="m353.523438 87.589844c2.214843-2.066406 5.734374-1.707032 7.5.753906 29.417968 41.046875 109.769531 101.992188 110.195312 102.3125.542969 5.894531.824219 11.867188.824219 17.910156 0 101.945313-78.5625 184.589844-175.480469 184.589844s-175.484375-82.644531-175.484375-184.589844c0-6.039062.285156-12.011718.824219-17.902344 142.183594-26.898437 214.421875-87.023437 231.621094-103.074218zm0 0" fill="#fbc4ac"/><path d="m151.984375 208.566406c0-4.648437.167969-16.519531.492187-24.429687-9.808593 2.335937-19.992187 4.527343-30.574218 6.527343-.539063 5.890626-.824219 11.859376-.824219 17.902344 0 101.945313 78.566406 184.589844 175.484375 184.589844 5.207031 0 10.359375-.253906 15.453125-.71875-89.675781-8.230469-160.03125-87.402344-160.03125-183.871094zm0 0" fill="#e3b098"/><path d="m207.226562 238.101562c-4.265624 0-7.726562-3.460937-7.726562-7.726562v-17.371094c0-4.265625 3.460938-7.726562 7.726562-7.726562 4.265626 0 7.726563 3.460937 7.726563 7.726562v17.371094c0 4.265625-3.460937 7.726562-7.726563 7.726562zm0 0" fill="#3a484a"/><path d="m219.054688 263.632812h-23.660157c-4.265625 0-7.726562-3.457031-7.726562-7.726562 0-4.265625 3.460937-7.726562 7.726562-7.726562h23.660157c4.265624 0 7.726562 3.460937 7.726562 7.726562 0 4.269531-3.457031 7.726562-7.726562 7.726562zm0 0" fill="#f98084"/><path d="m385.898438 238.101562c-4.265626 0-7.726563-3.460937-7.726563-7.726562v-17.371094c0-4.265625 3.460937-7.726562 7.726563-7.726562 4.269531 0 7.726562 3.460937 7.726562 7.726562v17.371094c0 4.265625-3.457031 7.726562-7.726562 7.726562zm0 0" fill="#3a484a"/><path d="m397.730469 263.632812h-23.660157c-4.269531 0-7.726562-3.457031-7.726562-7.726562 0-4.265625 3.457031-7.726562 7.726562-7.726562h23.660157c4.265625 0 7.722656 3.460937 7.722656 7.726562 0 4.269531-3.457031 7.726562-7.722656 7.726562zm0 0" fill="#f98084"/><path d="m296.5625 262.652344c-8.457031 0-16.402344-3.539063-21.796875-9.710938-2.808594-3.214844-2.480469-8.09375.734375-10.902344 3.210938-2.808593 8.089844-2.480468 10.902344.730469 2.457031 2.816407 6.164062 4.429688 10.160156 4.429688s7.703125-1.613281 10.160156-4.429688c2.808594-3.210937 7.691406-3.539062 10.902344-.730469 3.214844 2.808594 3.542969 7.6875.734375 10.902344-5.394531 6.171875-13.339844 9.710938-21.796875 9.710938zm0 0" fill="#3a484a"/><path d="m15.683594 290.132812c-5.445313-.46875-10.429688 3.035157-11.929688 8.289063-3.996094 14.015625-8.828125 43.011719 9.085938 68.222656l47.179687-56.023437s-17.097656-18.160156-44.335937-20.488282zm0 0" fill="#b8b8b8"/><path d="m208.289062 290.132812c5.445313-.46875 10.429688 3.035157 11.929688 8.289063 4 14.015625 8.828125 43.011719-9.082031 68.222656l-47.183594-56.023437s17.097656-18.160156 44.335937-20.488282zm0 0" fill="#b8b8b8"/><path d="m217.3125 402.25c0 58.171875-47.15625 105.328125-105.324219 105.328125-58.171875 0-105.328125-47.15625-105.328125-105.328125 0-58.167969 47.15625-105.324219 105.328125-105.324219 58.167969 0 105.324219 47.15625 105.324219 105.324219zm0 0" fill="#d2d2d2"/><path d="m132.589844 497.273438c-58.167969 0-105.324219-47.152344-105.324219-105.324219 0-37.140625 19.226563-69.785157 48.261719-88.539063-40.199219 14.832032-68.867188 53.488282-68.867188 98.839844 0 58.171875 47.15625 105.328125 105.328125 105.328125 21.027344 0 40.617188-6.167969 57.0625-16.789063-11.363281 4.195313-23.644531 6.484376-36.460937 6.484376zm0 0" fill="#b8b8b8"/><g fill="#3a484a"><path d="m56.359375 401.660156c-4.265625 0-7.726563-3.460937-7.726563-7.726562v-10.144532c0-4.265624 3.460938-7.726562 7.726563-7.726562s7.726563 3.460938 7.726563 7.726562v10.144532c0 4.265625-3.460938 7.726562-7.726563 7.726562zm0 0"/><path d="m168.464844 401.660156c-4.265625 0-7.726563-3.460937-7.726563-7.726562v-10.144532c0-4.265624 3.460938-7.726562 7.726563-7.726562 4.269531 0 7.726562 3.460938 7.726562 7.726562v10.144532c0 4.265625-3.457031 7.726562-7.726562 7.726562zm0 0"/><path d="m136.128906 394.308594c-3.210937-2.808594-8.09375-2.480469-10.902344.730468-.824218.941407-2.097656 1.480469-3.5 1.480469-1.398437 0-2.675781-.539062-3.496093-1.480469-1.457031-1.648437-3.625-2.632812-5.828125-2.632812-2.199219 0-4.355469.988281-5.808594 2.632812-.820312.941407-2.097656 1.480469-3.496094 1.480469-1.402344 0-2.679687-.539062-3.5-1.480469-2.808594-3.210937-7.691406-3.539062-10.902344-.730468-3.214843 2.808594-3.542968 7.6875-.734374 10.902344 3.757812 4.296874 9.273437 6.761718 15.136718 6.761718 3.300782 0 6.480469-.804687 9.3125-2.261718 2.832032 1.457031 6.011719 2.261718 9.316406 2.261718 5.859376 0 11.375-2.464844 15.132813-6.761718 2.808594-3.214844 2.480469-8.09375-.730469-10.902344zm0 0"/></g><path d="m200.511719 33.058594c40.6875 40.6875-58.628907 46.050781-58.628907 46.050781s5.363282-99.316406 46.050782-58.628906zm0 0" fill="#eb6da8"/><path d="m95.832031 137.738281c40.6875 40.6875 46.050781-58.628906 46.050781-58.628906s-99.3125 5.363281-58.625 46.050781zm0 0" fill="#eb6da8"/><path d="m128.464844 60.84375-4.84375 4.84375c-7.347656 7.34375-7.347656 19.253906 0 26.597656l5.085937 5.085938c7.347657 7.347656 19.253907 7.347656 26.597657 0l4.84375-4.839844c7.34375-7.347656 7.34375-19.253906 0-26.597656l-5.089844-5.089844c-7.34375-7.34375-19.25-7.34375-26.59375 0zm0 0" fill="#ff98c9"/></svg>