<svg xmlns="http://www.w3.org/2000/svg" data-name="Layer 1" viewBox="0 0 32 32" x="0px" y="0px"><title>Socialmedia Iconset-02</title><path d="M24.66,31H7.34A6.34,6.34,0,0,1,1,24.66V7.34A6.34,6.34,0,0,1,7.34,1H24.66A6.34,6.34,0,0,1,31,7.34V24.66A6.34,6.34,0,0,1,24.66,31ZM7.34,3A4.34,4.34,0,0,0,3,7.34V24.66A4.34,4.34,0,0,0,7.34,29H24.66A4.34,4.34,0,0,0,29,24.66V7.34A4.34,4.34,0,0,0,24.66,3H7.34Z"/><path d="M16,23.53A7.53,7.53,0,1,1,23.53,16,7.54,7.54,0,0,1,16,23.53Zm0-13.07A5.53,5.53,0,1,0,21.53,16,5.54,5.54,0,0,0,16,10.47Z"/><path d="M24.46,9.9A2.55,2.55,0,1,1,27,7.35,2.56,2.56,0,0,1,24.46,9.9Zm0-4.11A1.55,1.55,0,1,0,26,7.35,1.56,1.56,0,0,0,24.46,5.79Z"/><text x="0" y="47" fill="#000000" font-size="5px" font-weight="bold" font-family="'Helvetica Neue', Helvetica, Arial-Unicode, Arial, Sans-serif">Created by nico bayu saputro</text><text x="0" y="52" fill="#000000" font-size="5px" font-weight="bold" font-family="'Helvetica Neue', Helvetica, Arial-Unicode, Arial, Sans-serif">from the Noun Project</text></svg>