<svg id="Capa_1" enable-background="new 0 0 512 512" height="512" viewBox="0 0 512 512" width="512" xmlns="http://www.w3.org/2000/svg"><g><g><path d="m173.073 504.5h-46.882c0-80.656 65.995-117.081 66.336-117.581h126.947c.15.21 66.336 37.346 66.336 117.581h-46.882l-82.928-22.826z" fill="#da9d81"/><path d="m210.875 397.348v-10.429h-18.348c-.34.5-66.336 36.925-66.336 117.581h28.373c-1.534-5.804-2.373-11.949-2.373-18.396 0-36.366 26.171-76.853 58.684-88.756z" fill="#c7856a"/><path d="m192.522 386.916h36.706v88.387h-36.706z" fill="#f9f097"/><path d="m282.772 386.916h36.706v88.387h-36.706z" fill="#f9f097" transform="matrix(-1 0 0 -1 602.251 862.219)"/><path d="m338.927 504.5h-165.854c-1.601-5.063-2.292-10.517-1.901-16.191 1.491-21.525 18.963-38.937 40.498-40.358 10.527-.69 20.304 2.352 28.159 7.945 9.637 6.855 22.706 6.855 32.342 0 7.855-5.594 17.632-8.636 28.159-7.945 21.535 1.421 39.007 18.833 40.498 40.358.391 5.674-.3 11.127-1.901 16.191z" fill="#60d9a7"/><path d="m49.706 222.415c6.764 34.427 2.659 78.432-1.786 108.477-2.69 18.186 11.356 34.529 29.74 34.529 14.103 0 26.347-9.79 29.36-23.567 4.861-22.222 10.64-60.942 10.64-119.439z" fill="#4f4c5f"/><path d="m462.294 222.415c-6.764 34.427-2.659 78.432 1.786 108.477 2.69 18.186-11.356 34.529-29.74 34.529-14.103 0-26.347-9.79-29.36-23.567-4.861-22.222-10.64-60.942-10.64-119.439z" fill="#5c586f"/><path d="m269.303 13.143c-8.752 2.077-17.853 2.077-26.606 0-74.974-17.794-192.991-4.83-192.991 209.272h412.588c0-214.102-118.016-227.066-192.991-209.272z" fill="#5c586f"/><path d="m127.128 197.025c0-82.856 44.221-154.101 107.597-185.618-75.069-14.912-185.02 4.35-185.02 211.008h78.828c-.924-8.318-1.405-16.791-1.405-25.39z" fill="#4f4c5f"/><circle cx="431.071" cy="236.228" fill="#c7856a" r="39.239"/><path d="m93.898 165.426c24.537-65.675 87.791-112.337 162.102-112.337 74.241 0 137.555 46.752 162.102 112.417z" fill="#f9f097"/><path d="m158.113 83.364c-29.047 19.94-51.682 48.519-64.215 82.062l35.413.008c4.184-30.051 14.234-57.917 28.802-82.07z" fill="#f9d888"/><path d="m429.009 225.928c0 95.556-77.453 173.009-173.009 173.009-95.636 0-172.959-77.283-173.009-172.929.01-21.325 3.863-41.739 10.908-60.582 44.51-23.356 100.819-37.285 162.101-37.285 61.252 0 117.571 13.97 162.102 37.366 7.035 18.802 10.887 39.166 10.907 60.421z" fill="#da9d81"/><path d="m229.228 393.89v-6.974h-36.706v20.567c11.116-8.331 23.714-13.459 36.706-13.593z" fill="#f9d888"/><path d="m127.128 197.025c0-16.654 1.799-32.833 5.169-48.321-13.564 4.834-26.413 10.433-38.399 16.723-3.807 10.182-6.672 20.827-8.512 31.822-1.464-.166-2.949-.259-4.458-.259-21.671 0-39.239 17.568-39.239 39.239s17.568 39.239 39.239 39.239c3.078 0 6.07-.366 8.944-1.036 20.935 72.005 87.307 124.505 166.128 124.505 7.853 0 15.581-.533 23.157-1.547-86.168-15.413-152.029-99.245-152.029-200.365z" fill="#c7856a"/><g><g><g><ellipse cx="147.798" cy="262.136" fill="#fff" rx="39.924" ry="31.794"/></g><g><ellipse cx="364.202" cy="262.136" fill="#fff" rx="39.925" ry="31.794"/></g></g></g></g><g><path d="m171.052 207.663c-4.143 0-7.501 3.358-7.501 7.501v16.323c0 4.143 3.358 7.501 7.501 7.501s7.501-3.358 7.501-7.501v-16.323c.001-4.143-3.358-7.501-7.501-7.501z"/><path d="m340.947 238.989c4.143 0 7.501-3.358 7.501-7.501v-16.323c0-4.143-3.358-7.501-7.501-7.501s-7.501 3.358-7.501 7.501v16.323c0 4.142 3.358 7.501 7.501 7.501z"/><path d="m283.324 225.346c-3.124-2.722-7.862-2.397-10.584.727-4.226 4.849-10.328 7.63-16.741 7.63s-12.515-2.781-16.74-7.63c-2.721-3.124-7.46-3.449-10.583-.727-3.124 2.722-3.449 7.46-.727 10.583 7.075 8.119 17.3 12.776 28.051 12.776s20.975-4.656 28.051-12.776c2.721-3.122 2.396-7.861-.727-10.583z"/><path d="m45.742 266.941c-.131 18.908-1.9 40.023-5.274 62.826-1.604 10.847 1.579 21.824 8.735 30.115 20.408 23.65 58.631 13.228 65.122-16.452.313-1.429.617-2.9.919-4.381 16.955 21.022 38.094 37.822 61.92 49.382-21.648 16.573-58.495 53.932-58.495 116.068 0 4.143 3.358 7.501 7.501 7.501h259.659c4.143 0 7.501-3.358 7.501-7.501 0-62.696-37.913-100.319-58.593-116.175 24.151-11.754 45.299-28.741 61.976-49.473.315 1.551.634 3.085.961 4.58 3.735 17.076 19.167 29.469 36.693 29.469 22.895 0 40.534-20.355 37.165-43.133-3.374-22.803-5.144-43.918-5.274-62.827 14.141-16.146 15.415-39.615 3.418-57.115-1.948-87.702-24.608-149.01-67.393-182.212-46.206-35.858-104.234-29.078-134.71-21.845-7.57 1.797-15.575 1.797-23.145 0-31.216-7.408-90.528-14.18-137.044 23.705-3.212 2.617-3.695 7.341-1.079 10.553 2.617 3.212 7.341 3.695 10.553 1.079 41.523-33.819 95.58-27.511 124.105-20.741 9.838 2.335 20.237 2.334 30.074 0 64.923-15.408 104.334 5.353 122.049 19.1 36.7 28.481 57.212 80.928 61.069 156.024-6.547-3.721-14.008-5.739-21.326-6.017-17.212-83.598-91-143.954-176.829-143.954-87.524 0-159.986 61.869-176.84 143.954-7.509.29-14.92 2.383-21.313 6.015 3.025-58.569 16.263-103.604 39.431-134.028 2.51-3.296 1.873-8.003-1.423-10.512-3.295-2.51-8.003-1.873-10.512 1.423-27.025 35.488-41.489 88.464-43.023 157.46-12.006 17.519-10.702 40.985 3.422 57.112zm30.969-62.216c-2.452 20.926-1.271 42.425 3.645 63.192-26.288-.413-40.565-30.987-24.315-51.442 5.118-6.448 12.562-10.685 20.67-11.75zm22.958 135.5c-3.881 17.74-26.82 24.097-39.109 9.856-4.303-4.987-6.218-11.591-5.252-18.118 2.826-19.1 4.562-37.095 5.185-53.696 6.901 3.354 15.389 5.19 24.053 4.521 4.552 13.79 10.772 26.971 18.551 39.298-1.044 6.412-2.195 12.503-3.428 18.139zm175.606 65.176v39.959c-2.577 1.247-5.067 2.719-7.449 4.415-7.073 5.031-16.578 5.032-23.648.002-2.383-1.697-4.874-3.169-7.452-4.417v-39.956c12.8 1.29 25.005 1.412 38.549-.003zm57.742 91.597h-154.034c-4.936-31.648 30.782-53.304 56.495-34.998 12.274 8.731 28.768 8.731 41.046-.002 23.211-16.53 54.933-.614 56.833 26.822.191 2.768.076 5.503-.34 8.178zm-111.294-93.809v37.641c-7.142-.983-14.667-.466-21.71 1.64v-44.84c7.089 2.297 14.337 4.153 21.71 5.559zm68.554 37.64v-37.663c6.996-1.345 14.538-3.255 21.71-5.599v44.903c-7.17-2.144-14.698-2.606-21.71-1.641zm-105.266-39.506v48.509c-14.614 10.442-23.235 28.084-21.149 47.165h-29.986c2.736-50.146 32.478-81.073 51.135-95.674zm193.113 95.675h-29.985c2.087-19.113-6.558-36.74-21.149-47.165v-48.56c17.896 14.04 48.353 45.147 51.134 95.725zm84.718-260.812c0 17.333-13.981 31.48-31.236 31.732 3.222-13.524 4.931-27.958 4.931-42.041-.006-6.657-.414-14.025-1.251-21.152 15.487 2.016 27.556 15.378 27.556 31.461zm-28.474 121.711c-10.529 0-19.797-7.432-22.038-17.673-1.243-5.687-2.403-11.829-3.454-18.292 7.741-12.297 13.945-25.429 18.499-39.15 8.389.692 16.987-1.043 24.131-4.517.623 16.601 2.36 34.597 5.185 53.697 2.02 13.652-8.521 25.935-22.323 25.935zm-178.368-297.377c64.23 0 119.689 36.551 147.022 89.353-20.067-8.795-50.13-17.968-54.751-18.253-4.149-.177-7.633 3.087-7.808 7.186-.518 12.217 17.578 4.461 71.619 31.972 47.182 133.271-84.573 261.006-216.848 209.169-83.514-33.004-124.811-125.857-95.317-209.246 65.186-33.272 146.436-42.019 218.629-30.014 2.068.344 4.16-.178 5.855-1.504 5.152-4.047 2.999-12.232-3.394-13.295-70.646-11.747-148.274-4.128-212.032 23.903 27.515-53.175 83.177-89.271 147.025-89.271z"/></g></g></svg>